<svg id="コンポーネント_11_4" data-name="コンポーネント 11 – 4" xmlns="http://www.w3.org/2000/svg" width="38" height="32.928" viewBox="0 0 38 32.928">
  <g id="グループ_57" data-name="グループ 57">
    <g id="楕円形_1" data-name="楕円形 1" fill="#fff" stroke="#707070" stroke-width="1">
      <ellipse cx="8.831" cy="9.178" rx="8.831" ry="9.178" stroke="none"/>
      <ellipse cx="8.831" cy="9.178" rx="8.331" ry="8.678" fill="none"/>
    </g>
    <g id="楕円形_3" data-name="楕円形 3" transform="translate(6.423 5.245)" stroke="#707070" stroke-width="1">
      <ellipse cx="3.211" cy="3.934" rx="3.211" ry="3.934" stroke="none"/>
      <ellipse cx="3.211" cy="3.934" rx="2.711" ry="3.434" fill="none"/>
    </g>
    <g id="楕円形_4" data-name="楕円形 4" transform="translate(17.662)" fill="#fff" stroke="#707070" stroke-width="1">
      <ellipse cx="10.169" cy="9.178" rx="10.169" ry="9.178" stroke="none"/>
      <ellipse cx="10.169" cy="9.178" rx="9.669" ry="8.678" fill="none"/>
    </g>
    <g id="楕円形_5" data-name="楕円形 5" transform="translate(25.155 5.245)" stroke="#707070" stroke-width="1">
      <ellipse cx="2.676" cy="3.934" rx="2.676" ry="3.934" stroke="none"/>
      <ellipse cx="2.676" cy="3.934" rx="2.176" ry="3.434" fill="none"/>
    </g>
  </g>
  <g id="パス_9" data-name="パス 9" transform="matrix(0.966, -0.259, 0.259, 0.966, 7.871, 23.473)" fill="#bc0c0c">
    <path d="M 12.5598316192627 5.607478618621826 C 12.14819145202637 5.607478618621826 11.72775173187256 5.599758625030518 11.3101921081543 5.584548473358154 C 8.327362060546875 5.475878238677979 5.513401985168457 4.995318412780762 3.386671781539917 4.231398582458496 C 1.473981857299805 3.544368505477905 0.3133018016815186 2.683698415756226 0.2818418145179749 1.929118394851685 C 0.2715817987918854 1.683098435401917 0.3837118148803711 1.441408395767212 0.6246318221092224 1.190228343009949 C 1.812471747398376 -0.04817161336541176 5.465161800384521 -0.8802216053009033 9.713891983032227 -0.8802216053009033 C 10.12553215026855 -0.8802216053009033 10.54597187042236 -0.8725016117095947 10.96353149414062 -0.8572916388511658 C 13.94636154174805 -0.7486215829849243 16.76032257080078 -0.2680616080760956 18.88705253601074 0.4958584010601044 C 20.79974174499512 1.182888388633728 21.96042251586914 2.043558359146118 21.99188232421875 2.798138380050659 C 22.00214195251465 3.044158458709717 21.89001274108887 3.285848379135132 21.64909172058105 3.537028312683105 C 20.46125221252441 4.775428295135498 16.80856132507324 5.607478618621826 12.5598316192627 5.607478618621826 Z" stroke="none"/>
    <path d="M 9.713891983032227 -0.3802218437194824 C 4.979921340942383 -0.3802218437194824 1.870861053466797 0.6132683753967285 0.9854717254638672 1.536338329315186 C 0.8894710540771484 1.636428356170654 0.7761421203613281 1.782198429107666 0.781402587890625 1.908288478851318 C 0.7959709167480469 2.257618427276611 1.546821594238281 3.039248466491699 3.555692672729492 3.760838508605957 C 5.635251998901367 4.507808208465576 8.395651817321777 4.978028297424316 11.32839202880859 5.084878444671631 C 11.74001216888428 5.099878311157227 12.15432167053223 5.107478141784668 12.5598316192627 5.107478141784668 C 17.29380226135254 5.107478141784668 20.40286254882812 4.113988399505615 21.28825187683105 3.190918445587158 C 21.38425254821777 3.090828418731689 21.49758148193359 2.945058345794678 21.4923210144043 2.818968296051025 C 21.47775268554688 2.469638347625732 20.72690200805664 1.688008308410645 18.71803283691406 0.9664185047149658 C 16.63847160339355 0.2194485664367676 13.87807178497314 -0.2507715225219727 10.94533157348633 -0.3576216697692871 C 10.53371143341064 -0.3726215362548828 10.1194019317627 -0.3802218437194824 9.713891983032227 -0.3802218437194824 M 9.713889122009277 -1.380219459533691 C 10.12995338439941 -1.380219459533691 10.55266952514648 -1.372593402862549 10.98173141479492 -1.356961727142334 C 17.25270080566406 -1.128491401672363 22.40578269958496 0.7224884033203125 22.49145126342773 2.777308464050293 C 22.57126998901367 4.691536903381348 18.22476768493652 6.107476234436035 12.55983448028564 6.107476234436035 C 12.14377021789551 6.107476234436035 11.72105407714844 6.099850654602051 11.2919921875 6.084218502044678 C 5.021020889282227 5.855748176574707 -0.1320590972900391 4.004768371582031 -0.2177276611328125 1.949948310852051 C -0.29754638671875 0.03571987152099609 4.048955917358398 -1.380219459533691 9.713889122009277 -1.380219459533691 Z" stroke="none" fill="#707070"/>
  </g>
  <g id="パス_10" data-name="パス 10" transform="translate(9.075 16.884) rotate(14)" fill="#be0505">
    <path d="M 10.86177253723145 10.15794944763184 C 5.905962467193604 10.15794944763184 2.678712606430054 9.108658790588379 1.67878258228302 8.06874942779541 C 1.436892628669739 7.817199230194092 1.323992609977722 7.575589179992676 1.333622574806213 7.330119132995605 C 1.363102674484253 6.578049182891846 2.522392749786377 5.722148895263672 4.434702396392822 5.040588855743408 C 6.562322616577148 4.282299041748047 9.378872871398926 3.808479070663452 12.3655424118042 3.706429004669189 C 12.75901222229004 3.692979097366333 13.15543270111084 3.686169147491455 13.54379272460938 3.686169147491455 C 18.49960327148438 3.686169147491455 21.72685241699219 4.735458850860596 22.72679328918457 5.775369167327881 C 22.96867179870605 6.026918888092041 23.08158302307129 6.268528938293457 23.07195281982422 6.513998985290527 C 23.0424633026123 7.266068935394287 21.88318252563477 8.121969223022461 19.97086334228516 8.803528785705566 C 17.84324264526367 9.561819076538086 15.02669239044189 10.0356388092041 12.04003238677979 10.13768863677979 C 11.64656257629395 10.15113925933838 11.25014305114746 10.15794944763184 10.86177253723145 10.15794944763184 Z" stroke="none"/>
    <path d="M 13.54379272460938 4.186168670654297 C 13.16108226776123 4.186168670654297 12.7704029083252 4.192889213562012 12.38261222839355 4.206138610839844 C 9.446012496948242 4.306479454040527 6.683002471923828 4.770089149475098 4.602561950683594 5.511569023132324 C 2.595582962036133 6.226869106292725 1.846841812133789 7.002728939056396 1.833232879638672 7.349709033966064 C 1.828302383422852 7.475409030914307 1.942522048950195 7.621649265289307 2.039192199707031 7.722198963165283 C 2.935672760009766 8.654508590698242 6.07893180847168 9.657949447631836 10.86177253723145 9.657949447631836 C 11.24449253082275 9.657949447631836 11.63517284393311 9.651228904724121 12.02296257019043 9.637979507446289 C 14.95956230163574 9.537639617919922 17.72256278991699 9.074028968811035 19.80300331115723 8.332549095153809 C 21.80999183654785 7.617249011993408 22.5587329864502 6.841389179229736 22.57234191894531 6.494419097900391 C 22.57727241516113 6.368709087371826 22.46305274963379 6.222468852996826 22.36637306213379 6.121929168701172 C 21.46989250183105 5.189609527587891 18.32662200927734 4.186168670654297 13.54379272460938 4.186168670654297 M 13.54379653930664 3.186164855957031 C 19.25279426574707 3.186164855957031 23.64684677124023 4.613661766052246 23.57157325744629 6.533588886260986 C 23.49111175537109 8.585518836975098 18.33591270446777 10.42284965515137 12.05711269378662 10.6373987197876 C 11.65319061279297 10.65120124816895 11.25429439544678 10.6579532623291 10.86177635192871 10.6579532623291 C 5.15277099609375 10.6579532623291 0.7587184906005859 9.230456352233887 0.8340034484863281 7.310529232025146 C 0.9144535064697266 5.258599281311035 6.069652557373047 3.421269416809082 12.34846305847168 3.206719398498535 C 12.75238418579102 3.192916870117188 13.15127944946289 3.186164855957031 13.54379653930664 3.186164855957031 Z" stroke="none" fill="#707070"/>
  </g>
</svg>
